<svg id="svg" version="1.1" xmlns="http://www.w3.org/2000/svg" xmlns:xlink="http://www.w3.org/1999/xlink" width="400" height="400" viewBox="0, 0, 400,400"><g id="svgg"><path id="path0" d="M185.912 67.042 C 185.751 67.290,183.821 67.584,181.512 67.712 C 171.047 68.293,154.304 73.990,142.905 80.849 C 101.102 106.002,83.447 156.640,100.248 203.200 C 112.322 236.662,145.970 263.915,179.800 267.633 C 181.780 267.851,184.075 268.132,184.900 268.258 L 186.400 268.488 186.400 266.490 C 186.400 264.294,186.643 264.478,182.600 263.616 C 155.585 257.851,133.302 243.289,119.226 222.200 C 84.057 169.509,106.063 100.207,165.400 76.792 C 169.527 75.164,172.135 74.372,181.246 71.980 C 182.042 71.771,183.212 71.594,183.846 71.587 C 185.800 71.566,186.464 70.749,186.323 68.539 C 186.256 67.472,186.071 66.799,185.912 67.042 M130.600 134.228 C 130.160 134.560,129.605 135.409,129.366 136.116 C 129.061 137.021,128.648 137.435,127.966 137.519 C 126.271 137.727,124.920 138.427,124.479 139.326 C 123.230 141.873,122.249 157.475,122.222 175.200 C 122.199 190.996,122.323 192.335,124.112 195.600 C 130.617 207.471,142.752 219.184,165.200 235.259 C 182.531 247.669,189.414 253.399,190.894 256.646 C 191.704 258.424,192.470 256.729,194.352 249.000 C 200.100 225.386,196.850 207.852,185.100 199.080 C 182.105 196.844,171.361 189.600,171.040 189.600 C 170.940 189.600,169.361 188.671,167.529 187.535 C 158.413 181.882,157.443 181.393,153.494 180.453 C 142.223 177.771,144.114 186.339,157.200 197.235 C 158.630 198.426,159.890 199.502,160.000 199.626 C 160.110 199.750,162.435 201.549,165.167 203.623 C 172.593 209.263,174.491 211.172,174.551 213.063 C 174.645 216.015,171.970 214.842,162.668 207.849 C 152.677 200.339,149.206 197.105,143.634 190.115 L 142.291 188.431 142.557 183.515 C 142.703 180.812,142.986 177.250,143.186 175.600 C 144.949 161.034,143.382 148.367,139.344 144.552 C 137.790 143.083,137.600 142.708,137.600 141.111 C 137.600 135.560,133.796 131.820,130.600 134.228 M265.153 134.201 C 263.671 135.006,262.665 137.361,262.476 140.468 C 262.322 142.990,262.231 143.202,260.814 144.340 C 256.650 147.687,255.022 160.742,256.790 176.600 C 257.011 178.580,257.308 182.032,257.452 184.272 L 257.712 188.343 256.366 190.072 C 255.626 191.022,254.924 191.890,254.807 192.000 C 254.689 192.110,253.335 193.623,251.796 195.363 C 244.781 203.297,226.781 216.105,225.246 214.256 C 224.026 212.786,226.593 209.896,234.400 203.950 C 244.174 196.505,251.360 189.776,252.749 186.766 C 255.379 181.067,252.972 179.110,245.322 180.729 C 243.155 181.188,240.015 182.735,236.213 185.217 C 234.542 186.308,233.109 187.200,233.029 187.200 C 232.477 187.200,217.038 197.246,214.746 199.096 C 209.412 203.403,205.873 208.723,204.434 214.600 C 204.164 215.700,203.732 217.410,203.472 218.400 C 202.800 220.963,202.850 236.175,203.544 240.000 C 205.296 249.670,207.168 257.000,207.886 257.000 C 208.113 257.000,209.011 256.100,209.881 255.000 C 211.981 252.345,218.607 246.582,223.000 243.587 C 224.100 242.838,226.456 241.139,228.237 239.812 C 230.017 238.485,232.881 236.410,234.601 235.200 C 252.620 222.527,266.729 209.685,272.833 200.400 C 277.764 192.901,277.786 192.789,277.748 175.200 C 277.688 146.573,276.417 137.600,272.422 137.600 C 271.450 137.600,271.082 137.363,270.715 136.500 C 269.538 133.732,267.538 132.905,265.153 134.201 M259.000 277.381 C 258.780 277.463,258.108 277.638,257.507 277.771 C 253.066 278.749,250.927 285.730,253.757 290.007 C 256.593 294.293,263.818 294.285,266.718 289.994 L 267.661 288.600 265.815 288.477 C 264.311 288.378,263.744 288.544,262.754 289.377 C 259.187 292.379,254.666 288.556,255.985 283.655 C 256.845 280.463,260.341 279.345,263.036 281.400 C 264.517 282.530,267.200 282.808,267.200 281.831 C 267.200 279.596,261.443 276.472,259.000 277.381 M87.486 277.848 C 87.329 278.005,87.200 281.523,87.200 285.667 L 87.200 293.200 88.984 293.200 L 90.768 293.200 90.884 289.900 L 91.000 286.600 94.200 286.600 L 97.400 286.600 97.516 289.900 L 97.632 293.200 99.216 293.200 L 100.800 293.200 100.800 285.376 L 100.800 277.552 99.300 277.676 L 97.800 277.800 97.600 280.800 L 97.400 283.800 94.200 283.800 L 91.000 283.800 90.800 280.800 L 90.600 277.800 89.186 277.681 C 88.408 277.615,87.643 277.690,87.486 277.848 M107.203 283.500 C 106.038 286.745,104.753 290.255,104.348 291.300 L 103.612 293.200 105.380 293.200 C 107.038 293.200,107.180 293.113,107.654 291.800 L 108.161 290.400 111.449 290.400 L 114.738 290.400 115.200 291.800 C 115.638 293.126,115.758 293.200,117.474 293.200 C 119.039 293.200,119.248 293.105,119.008 292.500 C 118.855 292.115,117.681 288.920,116.400 285.400 C 115.119 281.880,113.945 278.685,113.792 278.300 C 113.577 277.758,113.042 277.600,111.419 277.600 L 109.323 277.600 107.203 283.500 M121.885 277.848 C 121.728 278.005,121.600 281.523,121.600 285.667 L 121.600 293.200 123.400 293.200 L 125.200 293.200 125.200 288.600 C 125.200 282.687,125.472 282.686,129.258 288.584 L 132.200 293.167 134.109 293.184 L 136.017 293.200 135.909 285.500 L 135.800 277.800 134.200 277.800 L 132.600 277.800 132.487 282.300 C 132.344 287.973,132.202 287.972,128.400 282.287 C 125.383 277.775,123.346 276.387,121.885 277.848 M139.467 277.867 C 139.320 278.013,139.200 281.523,139.200 285.667 L 139.200 293.200 143.300 293.191 C 152.451 293.172,156.837 286.225,151.520 280.170 C 149.595 277.978,140.998 276.335,139.467 277.867 M156.800 285.376 L 156.800 293.200 161.000 293.200 L 165.200 293.200 165.200 292.019 C 165.200 290.850,165.175 290.837,162.700 290.719 L 160.200 290.600 160.000 284.200 L 159.800 277.800 158.300 277.676 L 156.800 277.552 156.800 285.376 M168.000 285.400 L 168.000 293.200 172.600 293.200 L 177.200 293.200 177.200 292.000 L 177.200 290.800 174.700 290.794 C 171.463 290.786,171.118 290.541,171.274 288.360 L 171.400 286.600 173.900 286.481 C 176.375 286.363,176.400 286.350,176.400 285.181 L 176.400 284.000 173.800 284.000 L 171.200 284.000 171.200 282.000 L 171.200 280.000 174.200 280.000 L 177.200 280.000 177.200 278.800 L 177.200 277.600 172.600 277.600 L 168.000 277.600 168.000 285.400 M185.067 277.891 C 184.954 278.075,185.700 281.602,186.726 285.730 L 188.591 293.234 190.791 293.117 L 192.991 293.000 194.100 288.600 C 194.711 286.180,195.304 283.943,195.420 283.629 C 195.848 282.462,196.689 284.167,197.576 288.000 C 198.060 290.090,198.545 292.115,198.655 292.500 C 199.032 293.824,203.115 293.484,203.454 292.100 C 203.603 291.495,204.489 288.120,205.424 284.600 C 206.359 281.080,207.040 278.065,206.938 277.900 C 206.455 277.118,203.687 277.598,203.484 278.500 C 203.373 278.995,202.868 281.515,202.363 284.100 C 201.127 290.422,200.865 290.267,198.975 282.100 L 197.933 277.600 195.993 277.600 C 194.487 277.600,194.010 277.756,193.859 278.300 C 193.752 278.685,193.371 280.260,193.013 281.800 C 191.297 289.176,190.716 290.079,189.991 286.500 C 189.735 285.235,189.227 282.760,188.863 281.000 L 188.200 277.800 186.737 277.678 C 185.933 277.611,185.181 277.707,185.067 277.891 M210.000 285.400 L 210.000 293.200 211.600 293.200 L 213.200 293.200 213.200 285.400 L 213.200 277.600 211.600 277.600 L 210.000 277.600 210.000 285.400 M216.145 278.200 C 215.686 279.394,216.321 279.952,218.279 280.077 L 220.200 280.200 220.310 286.700 L 220.420 293.200 222.210 293.200 L 224.000 293.200 224.000 286.622 L 224.000 280.044 225.900 279.922 C 227.640 279.810,227.811 279.707,227.927 278.700 L 228.053 277.600 222.214 277.600 C 217.393 277.600,216.335 277.705,216.145 278.200 M230.800 285.400 L 230.800 293.200 232.400 293.200 L 234.000 293.200 234.005 290.700 C 234.015 286.391,234.008 286.400,237.600 286.400 C 241.192 286.400,241.185 286.391,241.195 290.700 L 241.200 293.200 242.800 293.200 L 244.400 293.200 244.400 285.400 L 244.400 277.600 242.800 277.600 L 241.200 277.600 241.195 279.900 C 241.185 283.985,241.172 284.000,237.600 284.000 C 234.028 284.000,234.015 283.985,234.005 279.900 L 234.000 277.600 232.400 277.600 L 230.800 277.600 230.800 285.400 M275.161 278.679 C 274.437 280.545,270.000 292.908,270.000 293.059 C 270.000 294.129,273.508 293.009,273.946 291.800 L 274.452 290.400 277.646 290.400 L 280.841 290.400 281.426 291.800 C 281.956 293.068,282.161 293.200,283.605 293.200 C 285.613 293.200,285.674 293.640,282.469 285.000 L 279.798 277.800 277.697 277.679 C 275.719 277.565,275.571 277.623,275.161 278.679 M288.267 277.867 C 288.120 278.013,288.000 281.523,288.000 285.667 L 288.000 293.200 289.800 293.200 L 291.600 293.200 291.600 290.200 C 291.600 287.503,291.678 287.200,292.372 287.200 C 292.919 287.200,293.627 288.075,294.800 290.200 L 296.456 293.200 298.228 293.200 C 300.368 293.200,300.356 293.396,298.409 290.215 C 296.662 287.360,296.658 286.916,298.378 285.935 C 300.878 284.508,300.686 280.295,298.041 278.515 C 296.688 277.604,289.036 277.097,288.267 277.867 M303.479 277.854 C 303.326 278.008,303.200 281.523,303.200 285.667 L 303.200 293.200 308.000 293.200 L 312.800 293.200 312.800 292.000 L 312.800 290.800 310.300 290.794 C 307.063 290.786,306.718 290.541,306.874 288.360 L 307.000 286.600 309.400 286.400 C 311.640 286.213,311.800 286.133,311.800 285.200 C 311.800 284.267,311.640 284.187,309.400 284.000 L 307.000 283.800 307.000 282.000 L 307.000 280.200 309.800 280.000 C 312.467 279.810,312.600 279.752,312.600 278.800 C 312.600 277.801,304.384 276.949,303.479 277.854 M148.000 281.169 C 152.133 284.097,149.851 290.614,144.800 290.309 L 143.000 290.200 142.886 285.657 C 142.740 279.792,144.221 278.491,148.000 281.169 M295.911 280.623 C 298.089 282.148,296.478 284.936,293.541 284.725 L 291.800 284.600 291.675 282.854 C 291.467 279.952,293.457 278.904,295.911 280.623 M112.797 284.591 C 113.822 287.670,113.688 288.000,111.419 288.000 C 109.306 288.000,109.112 287.603,109.953 285.000 C 111.192 281.170,111.637 281.106,112.797 284.591 M278.900 284.138 C 280.036 287.598,279.921 288.000,277.787 288.000 C 275.536 288.000,275.303 287.513,276.216 284.715 C 277.371 281.176,277.891 281.064,278.900 284.138 M86.267 295.467 C 86.120 295.613,86.000 295.883,86.000 296.067 C 86.000 296.250,137.300 296.400,200.000 296.400 C 266.628 296.400,314.000 296.252,314.000 296.043 C 314.000 295.846,313.715 295.576,313.367 295.443 C 312.499 295.110,86.600 295.134,86.267 295.467 " stroke="none" fill="#2678bb" fill-rule="evenodd"></path><path id="path1" d="M0.000 200.000 L 0.000 400.000 200.000 400.000 L 400.000 400.000 400.000 200.000 L 400.000 0.000 200.000 0.000 L 0.000 0.000 0.000 200.000 M200.200 66.199 C 207.056 66.629,213.149 67.665,219.600 69.495 C 223.568 70.621,224.000 70.881,224.000 72.144 C 224.000 73.189,223.900 73.272,222.900 73.056 C 221.655 72.787,217.842 72.245,212.724 71.609 C 207.471 70.956,193.372 71.059,188.400 71.787 C 186.090 72.125,183.120 72.562,181.800 72.759 C 153.128 77.024,124.003 100.137,111.393 128.633 C 103.586 146.275,101.003 168.671,104.797 185.812 C 110.877 213.274,124.304 233.318,146.590 248.201 C 159.008 256.494,171.632 261.164,188.400 263.667 C 195.985 264.799,216.467 264.052,222.700 262.416 C 223.947 262.089,224.000 262.123,224.000 263.237 C 224.000 263.930,223.788 264.400,223.475 264.400 C 223.186 264.400,222.241 264.739,221.375 265.153 C 220.509 265.566,218.810 266.127,217.600 266.397 C 216.390 266.668,214.680 267.055,213.800 267.256 C 204.334 269.425,188.208 269.858,178.470 268.204 C 110.501 256.661,73.301 183.459,104.089 121.837 C 120.253 89.487,152.213 68.430,188.800 66.027 C 191.550 65.846,194.430 65.760,195.200 65.836 C 195.970 65.912,198.220 66.075,200.200 66.199 M210.400 94.200 C 210.400 95.849,210.317 96.000,209.410 96.000 C 208.865 96.000,207.830 96.359,207.110 96.799 C 206.389 97.238,205.478 97.598,205.084 97.599 C 200.119 97.609,197.447 102.559,197.743 111.200 C 197.975 117.948,198.548 122.252,200.033 128.400 C 200.272 129.390,200.607 131.550,200.778 133.200 C 201.439 139.594,205.577 148.220,209.229 150.821 L 210.400 151.654 210.400 159.773 C 210.400 168.749,210.541 168.188,207.454 171.500 L 206.243 172.800 196.741 172.800 L 187.238 172.800 186.107 171.100 C 185.018 169.464,184.577 168.600,183.689 166.367 C 182.769 164.052,182.926 142.546,183.870 141.519 C 190.832 133.953,181.369 122.735,173.498 129.224 C 167.799 133.921,169.888 142.086,177.200 143.686 C 179.531 144.196,179.800 144.356,179.800 145.228 L 179.800 146.200 168.300 146.306 L 156.800 146.412 156.800 132.812 L 156.800 119.211 169.900 119.105 L 183.000 119.000 183.101 106.200 C 183.157 99.160,183.286 93.175,183.388 92.900 C 183.533 92.514,186.623 92.400,196.987 92.400 L 210.400 92.400 210.400 94.200 M209.200 99.691 L 210.200 99.800 210.400 109.400 L 210.600 119.000 223.800 119.200 L 237.000 119.400 237.127 122.400 C 237.313 126.828,236.899 129.420,235.797 130.731 C 235.277 131.349,234.722 132.373,234.563 133.007 C 233.887 135.698,230.082 141.760,227.223 144.700 L 225.570 146.400 218.265 146.400 C 213.198 146.400,210.816 146.544,210.489 146.871 C 209.057 148.303,205.634 141.502,204.415 134.800 C 204.154 133.370,203.861 131.795,203.763 131.300 C 203.665 130.805,203.325 130.400,203.008 130.400 C 201.871 130.400,199.200 114.851,199.200 108.234 C 199.200 103.090,202.755 98.823,206.595 99.358 C 207.478 99.481,208.650 99.631,209.200 99.691 M135.799 134.519 C 137.298 136.018,137.995 138.082,137.998 141.036 C 138.000 142.809,138.127 143.129,138.984 143.520 C 143.439 145.550,145.408 159.375,143.641 176.215 C 142.475 187.329,142.497 188.017,144.090 189.886 C 150.922 197.907,153.743 200.516,163.556 207.892 C 169.586 212.423,173.451 214.709,174.059 214.101 C 175.350 212.810,173.015 210.290,164.279 203.543 C 150.602 192.981,145.600 187.496,145.600 183.059 C 145.600 178.094,154.086 178.635,162.961 184.167 C 165.183 185.551,167.900 187.194,169.000 187.817 C 182.072 195.219,190.457 202.191,193.494 208.185 C 199.002 219.056,198.852 237.931,193.119 255.400 C 191.996 258.822,191.707 258.850,189.626 255.735 C 187.232 252.150,181.588 247.551,165.400 235.999 C 140.905 218.519,124.587 201.977,122.236 192.245 C 121.086 187.483,121.277 166.534,122.629 149.237 C 123.435 138.932,123.757 138.019,126.884 137.177 C 127.741 136.947,128.548 136.453,128.679 136.079 C 129.757 133.006,133.472 132.192,135.799 134.519 M269.880 134.100 C 270.331 134.595,270.906 135.399,271.157 135.886 C 271.423 136.403,272.251 136.944,273.143 137.185 C 274.954 137.672,275.883 138.597,276.411 140.437 C 277.917 145.688,278.900 186.324,277.654 191.800 C 275.289 202.190,259.436 218.382,234.400 235.980 C 232.090 237.604,229.210 239.681,228.000 240.595 C 226.790 241.510,224.990 242.809,224.000 243.482 C 217.772 247.717,210.431 254.401,209.295 256.870 C 208.151 259.355,207.525 258.861,206.291 254.500 C 198.984 228.671,201.570 209.027,213.531 199.521 C 220.413 194.052,239.494 182.192,243.753 180.736 C 249.975 178.610,254.234 179.628,254.167 183.224 C 254.078 187.954,249.259 193.173,234.600 204.414 C 228.441 209.138,225.496 212.051,225.666 213.253 C 225.927 215.100,228.613 213.679,237.446 207.022 C 246.253 200.383,247.267 199.494,252.164 194.100 C 257.732 187.968,257.502 188.828,256.434 178.152 C 254.523 159.039,256.792 143.200,261.441 143.200 C 261.859 143.200,262.002 142.569,262.009 140.700 C 262.029 134.905,266.897 130.824,269.880 134.100 M237.117 140.832 C 237.293 146.463,237.328 146.400,234.016 146.400 C 230.882 146.400,230.463 146.109,231.645 144.752 C 232.602 143.653,234.787 139.999,235.623 138.099 C 236.548 135.999,236.992 136.813,237.117 140.832 M91.283 279.900 L 91.400 283.000 94.100 283.118 L 96.800 283.237 96.806 280.518 C 96.814 276.998,97.014 276.722,99.439 276.876 L 101.400 277.000 101.509 285.171 C 101.626 293.992,101.628 293.982,99.474 293.994 C 97.175 294.006,96.800 293.470,96.800 290.168 L 96.800 287.163 94.100 287.282 L 91.400 287.400 91.281 290.388 C 91.154 293.559,90.901 293.984,89.133 293.994 C 86.738 294.008,86.800 294.235,86.800 285.424 C 86.800 276.325,86.665 276.800,89.250 276.800 L 91.166 276.800 91.283 279.900 M116.844 284.600 C 118.364 288.780,119.705 292.505,119.824 292.878 C 120.406 294.705,115.374 294.218,114.735 292.386 C 114.135 290.663,108.587 290.515,108.162 292.211 C 107.849 293.456,106.893 294.000,105.014 294.000 C 102.806 294.000,102.868 293.423,106.011 284.770 L 108.918 276.766 111.499 276.883 L 114.080 277.000 116.844 284.600 M128.529 281.199 C 131.964 286.340,132.000 286.337,132.000 280.912 L 132.000 276.758 134.100 276.879 L 136.200 277.000 136.309 285.171 C 136.427 294.068,136.448 293.983,134.133 293.994 C 132.094 294.004,131.815 293.754,128.973 289.373 C 125.641 284.238,125.600 284.237,125.600 289.357 C 125.600 293.809,125.509 294.000,123.400 294.000 C 121.156 294.000,121.200 294.172,121.200 285.424 C 121.200 276.321,121.063 276.800,123.661 276.800 L 125.590 276.800 128.529 281.199 M149.628 277.900 C 155.426 280.837,155.743 289.372,150.176 292.635 C 148.329 293.718,142.199 294.438,139.850 293.848 L 138.800 293.585 138.800 285.459 C 138.800 280.990,138.920 277.213,139.067 277.067 C 139.914 276.219,147.491 276.817,149.628 277.900 M160.595 277.700 C 160.711 278.195,160.849 281.210,160.903 284.400 L 161.000 290.200 163.297 290.320 C 165.396 290.429,165.617 290.530,165.856 291.482 C 166.341 293.415,165.682 293.789,161.558 293.917 C 155.436 294.108,156.000 294.994,156.000 285.192 L 156.000 276.800 158.192 276.800 C 160.137 276.800,160.409 276.902,160.595 277.700 M177.795 277.977 C 178.270 280.138,177.518 280.800,174.586 280.800 L 172.000 280.800 172.000 282.000 C 172.000 283.200,172.001 283.200,174.392 283.200 C 176.611 283.200,176.803 283.273,177.036 284.200 C 177.617 286.516,177.014 287.200,174.392 287.200 L 172.000 287.200 172.000 288.600 L 172.000 290.000 174.520 290.000 C 177.286 290.000,178.000 290.410,178.000 292.000 C 178.000 293.762,177.375 294.000,172.753 294.000 C 166.630 294.000,167.200 294.908,167.200 285.157 L 167.200 276.800 172.368 276.800 L 177.536 276.800 177.795 277.977 M188.770 277.721 C 188.963 278.228,189.437 280.343,189.825 282.421 C 190.753 287.404,190.887 287.447,191.953 283.102 C 193.617 276.324,193.310 276.800,196.012 276.800 L 198.362 276.800 198.774 278.292 C 199.001 279.113,199.481 281.138,199.841 282.792 C 200.566 286.122,201.053 287.012,201.355 285.558 C 201.465 285.031,201.754 283.610,201.997 282.400 C 202.241 281.190,202.637 279.427,202.877 278.482 L 203.314 276.763 205.557 276.882 C 208.310 277.027,208.295 276.370,205.764 286.078 C 203.626 294.275,203.818 293.984,200.549 293.995 C 198.441 294.002,198.246 293.734,197.205 289.400 C 196.229 285.337,195.770 284.544,195.375 286.242 C 194.392 290.478,193.479 293.429,193.073 293.687 C 192.447 294.085,189.135 294.073,188.501 293.671 C 188.058 293.389,184.000 278.653,184.000 277.325 C 184.000 276.278,188.359 276.640,188.770 277.721 M213.757 277.433 C 214.364 279.013,214.017 293.508,213.367 293.757 C 212.306 294.164,210.188 294.028,209.680 293.520 C 209.172 293.012,208.977 279.472,209.452 277.700 C 209.758 276.560,213.337 276.338,213.757 277.433 M228.600 278.800 L 228.600 280.600 226.600 280.800 L 224.600 281.000 224.490 287.295 C 224.367 294.294,224.375 294.277,221.348 293.931 L 220.200 293.800 220.000 287.400 L 219.800 281.000 217.881 280.877 C 215.594 280.731,214.717 279.578,215.532 277.790 L 215.992 276.780 222.296 276.890 L 228.600 277.000 228.600 278.800 M234.557 277.433 C 234.691 277.781,234.800 279.221,234.800 280.633 L 234.800 283.200 237.583 283.200 L 240.366 283.200 240.483 280.100 L 240.600 277.000 242.648 276.881 C 245.247 276.730,245.188 276.522,245.195 285.820 C 245.201 293.708,245.120 294.000,242.953 294.000 C 240.529 294.000,240.400 293.815,240.400 290.357 L 240.400 287.200 237.600 287.200 L 234.800 287.200 234.800 290.357 C 234.800 293.815,234.671 294.000,232.247 294.000 C 230.080 294.000,229.999 293.708,230.005 285.820 C 230.012 276.648,229.972 276.800,232.404 276.800 C 233.777 276.800,234.383 276.978,234.557 277.433 M264.900 277.977 C 266.786 279.174,268.000 280.897,268.000 282.380 C 268.000 283.723,264.475 283.548,262.778 282.120 C 259.861 279.666,256.600 281.420,256.600 285.444 C 256.600 289.248,259.937 290.947,262.754 288.577 C 265.578 286.201,269.057 287.808,267.141 290.604 C 264.543 294.396,258.154 295.067,254.574 291.924 C 246.695 285.005,256.052 272.366,264.900 277.977 M280.744 278.500 C 283.441 284.910,286.113 293.283,285.571 293.626 C 283.946 294.655,281.468 293.956,280.835 292.292 C 280.437 291.245,280.303 291.200,277.600 291.200 C 274.897 291.200,274.763 291.245,274.365 292.292 C 273.837 293.680,273.336 293.988,271.600 293.988 C 269.078 293.988,268.915 293.613,270.093 290.530 C 270.666 289.029,271.873 285.730,272.774 283.200 C 275.173 276.470,274.920 276.800,277.682 276.800 L 280.028 276.800 280.744 278.500 M297.885 277.641 C 301.273 279.281,301.921 283.319,299.236 286.058 L 297.672 287.654 299.294 290.468 C 301.120 293.636,301.009 293.983,298.162 293.994 C 296.291 294.001,295.928 293.676,294.030 290.296 C 292.460 287.500,292.000 287.655,292.000 290.981 C 292.000 293.670,291.760 294.000,289.800 294.000 C 287.556 294.000,287.600 294.172,287.600 285.424 C 287.600 280.974,287.720 277.213,287.867 277.067 C 288.566 276.367,296.152 276.802,297.885 277.641 M313.520 278.434 C 313.679 280.333,313.101 280.732,309.985 280.879 C 306.563 281.039,305.903 282.912,309.200 283.105 C 312.673 283.309,312.859 283.426,312.722 285.313 L 312.600 287.000 310.000 287.200 C 307.407 287.399,307.400 287.403,307.275 288.700 L 307.149 290.000 309.742 290.000 C 313.254 290.000,313.600 290.179,313.600 291.996 C 313.600 293.862,313.244 293.987,307.933 293.995 C 302.304 294.002,302.800 294.831,302.800 285.424 C 302.800 280.974,302.925 277.208,303.078 277.055 C 303.231 276.902,305.616 276.827,308.378 276.889 L 313.400 277.000 313.520 278.434 M143.372 281.330 C 143.260 281.622,143.220 283.557,143.284 285.630 L 143.400 289.400 145.296 289.522 C 148.529 289.729,150.394 286.674,149.029 283.407 C 148.169 281.349,143.957 279.803,143.372 281.330 M292.156 281.371 C 291.532 282.997,292.141 283.800,294.000 283.800 C 295.688 283.800,295.808 283.728,295.932 282.643 C 296.126 280.943,292.756 279.807,292.156 281.371 M110.648 285.040 C 110.292 286.086,110.000 287.000,110.000 287.071 C 110.000 287.375,112.373 287.167,112.572 286.846 C 112.803 286.471,112.096 284.029,111.594 283.468 C 111.430 283.286,111.005 283.993,110.648 285.040 M277.034 284.487 C 276.100 286.677,276.205 287.200,277.576 287.200 C 279.117 287.200,279.202 286.943,278.368 284.800 L 277.668 283.000 277.034 284.487 M314.498 295.300 C 314.599 295.575,314.604 296.025,314.508 296.300 C 314.369 296.698,291.107 296.800,200.000 296.800 C 108.893 296.800,85.631 296.698,85.492 296.300 C 85.396 296.025,85.401 295.575,85.502 295.300 C 85.648 294.902,108.913 294.800,200.000 294.800 C 291.087 294.800,314.352 294.902,314.498 295.300 M109.526 302.300 C 109.442 302.740,108.949 303.050,108.197 303.135 C 104.970 303.500,105.047 308.000,108.280 308.000 C 109.888 308.000,110.281 309.553,108.700 309.662 C 105.495 309.884,104.000 308.636,104.000 305.739 C 104.000 302.886,105.136 301.600,107.657 301.600 C 109.347 301.600,109.638 301.709,109.526 302.300 M165.600 302.400 C 165.600 302.933,165.333 303.200,164.800 303.200 C 164.267 303.200,164.000 302.933,164.000 302.400 C 164.000 301.867,164.267 301.600,164.800 301.600 C 165.333 301.600,165.600 301.867,165.600 302.400 M181.673 302.700 C 181.778 303.607,181.976 303.782,182.800 303.697 C 185.092 303.462,186.373 309.205,184.100 309.528 C 183.267 309.646,183.200 309.503,183.200 307.598 C 183.200 304.707,181.865 304.799,181.678 307.704 C 181.577 309.274,181.422 309.600,180.778 309.600 C 180.059 309.600,180.000 309.296,180.000 305.600 C 180.000 301.912,180.060 301.600,180.773 301.600 C 181.320 301.600,181.584 301.923,181.673 302.700 M203.306 301.839 C 203.831 302.364,203.052 303.200,202.037 303.200 C 199.005 303.200,199.153 307.720,202.197 308.065 C 203.834 308.250,204.039 309.440,202.492 309.780 C 198.836 310.583,196.353 305.325,199.004 302.396 C 199.698 301.628,202.706 301.239,203.306 301.839 M274.400 302.400 C 274.400 303.332,273.010 303.524,272.670 302.639 C 272.401 301.936,272.723 301.600,273.667 301.600 C 274.133 301.600,274.400 301.891,274.400 302.400 M173.876 303.444 C 174.759 304.397,174.789 304.549,174.222 305.176 C 173.429 306.052,173.416 307.954,174.200 308.255 C 175.692 308.828,174.617 309.868,172.800 309.609 C 171.973 309.492,172.020 309.598,171.564 306.768 C 170.936 302.868,171.967 301.385,173.876 303.444 M119.182 304.272 C 119.282 304.359,119.439 305.603,119.530 307.037 L 119.696 309.643 117.389 309.521 C 113.870 309.336,113.156 307.129,116.347 306.302 C 117.735 305.942,117.674 305.086,116.274 305.281 C 115.050 305.452,114.859 304.115,116.077 303.896 C 116.980 303.733,118.821 303.956,119.182 304.272 M137.511 304.223 C 139.042 305.295,138.732 307.122,136.992 307.276 C 135.349 307.421,135.104 308.200,136.702 308.200 C 138.095 308.200,138.442 309.424,137.120 309.671 C 134.651 310.134,132.878 308.376,133.403 305.986 C 133.862 303.897,135.836 303.050,137.511 304.223 M213.190 304.390 C 214.884 306.084,214.292 309.542,212.290 309.646 C 209.554 309.788,208.759 309.027,208.902 306.410 C 209.044 303.819,211.474 302.674,213.190 304.390 M227.229 304.433 C 227.989 305.633,227.676 309.600,226.822 309.600 C 226.177 309.600,226.023 309.274,225.922 307.700 C 225.834 306.332,225.632 305.800,225.200 305.800 C 224.768 305.800,224.566 306.332,224.478 307.700 C 224.316 310.232,222.804 310.591,222.794 308.100 C 222.791 307.275,222.631 306.352,222.439 306.049 C 221.828 305.085,221.200 305.986,221.200 307.824 C 221.200 309.333,221.080 309.600,220.400 309.600 C 219.677 309.600,219.600 309.333,219.600 306.825 L 219.600 304.051 220.900 303.923 C 223.876 303.632,226.875 303.874,227.229 304.433 M237.511 304.223 C 239.415 305.557,238.488 309.254,236.119 309.774 C 235.231 309.969,234.811 310.314,234.724 310.922 C 234.656 311.401,234.285 311.852,233.900 311.925 C 233.271 312.045,233.200 311.652,233.200 308.055 L 233.200 304.051 234.500 303.889 C 235.215 303.801,235.985 303.699,236.211 303.664 C 236.437 303.629,237.022 303.880,237.511 304.223 M247.067 303.844 C 248.167 304.139,248.821 305.744,248.677 307.800 L 248.566 309.400 246.295 309.520 C 243.069 309.690,242.364 306.998,245.433 306.228 C 246.650 305.922,246.329 305.200,244.976 305.200 C 243.735 305.200,243.672 304.119,244.900 303.882 C 245.395 303.787,245.890 303.687,246.000 303.660 C 246.110 303.633,246.590 303.716,247.067 303.844 M256.967 303.843 C 257.922 304.209,257.729 305.200,256.704 305.200 C 255.829 305.200,255.833 305.223,256.904 306.216 C 259.148 308.297,258.026 309.906,254.500 309.662 C 253.235 309.575,253.328 308.400,254.600 308.400 C 255.150 308.400,255.600 308.241,255.600 308.046 C 255.600 307.851,255.150 307.397,254.600 307.037 C 252.459 305.634,254.491 302.893,256.967 303.843 M267.111 304.178 C 267.481 304.547,266.703 305.201,265.876 305.214 C 265.038 305.228,265.048 305.268,266.100 306.129 C 268.294 307.925,267.098 310.252,264.260 309.709 C 262.899 309.449,262.951 308.148,264.316 308.295 C 265.490 308.422,265.437 307.847,264.200 307.037 C 263.024 306.266,262.863 304.644,263.900 304.016 C 264.527 303.636,266.678 303.744,267.111 304.178 M284.390 304.390 C 286.084 306.084,285.492 309.542,283.490 309.646 C 280.754 309.788,279.959 309.027,280.102 306.410 C 280.244 303.819,282.674 302.674,284.390 304.390 M295.269 304.262 C 296.388 305.275,296.333 309.600,295.200 309.600 C 294.543 309.600,294.399 309.331,294.394 308.100 C 294.386 306.267,293.892 305.402,293.040 305.729 C 292.584 305.904,292.400 306.494,292.400 307.787 C 292.400 309.333,292.282 309.600,291.600 309.600 C 290.877 309.600,290.800 309.333,290.800 306.825 L 290.800 304.051 292.100 303.889 C 292.815 303.801,293.656 303.699,293.969 303.664 C 294.281 303.629,294.866 303.898,295.269 304.262 M128.800 304.391 C 128.800 304.606,128.350 305.076,127.800 305.437 C 126.985 305.971,126.800 306.416,126.800 307.846 C 126.800 309.333,126.678 309.600,126.000 309.600 C 125.276 309.600,125.200 309.333,125.200 306.800 L 125.200 304.000 127.000 304.000 C 127.990 304.000,128.800 304.176,128.800 304.391 M152.728 305.100 C 152.895 306.280,153.362 306.241,153.927 305.000 C 154.483 303.780,156.000 303.617,156.000 304.776 C 156.000 306.000,156.750 306.147,157.263 305.023 C 157.519 304.460,158.060 304.000,158.464 304.000 C 159.310 304.000,159.324 304.045,158.842 305.281 C 158.645 305.787,158.256 306.965,157.978 307.900 C 157.368 309.950,156.332 310.168,155.600 308.400 C 155.042 307.052,154.400 306.812,154.400 307.951 C 154.400 308.829,153.436 309.745,152.751 309.517 C 152.307 309.369,150.885 305.642,150.826 304.472 C 150.779 303.517,152.588 304.115,152.728 305.100 M165.600 306.800 C 165.600 309.333,165.524 309.600,164.800 309.600 C 164.076 309.600,164.000 309.333,164.000 306.800 C 164.000 304.267,164.076 304.000,164.800 304.000 C 165.524 304.000,165.600 304.267,165.600 306.800 M274.400 306.800 C 274.400 309.333,274.324 309.600,273.600 309.600 C 272.876 309.600,272.800 309.333,272.800 306.800 C 272.800 304.267,272.876 304.000,273.600 304.000 C 274.324 304.000,274.400 304.267,274.400 306.800 M210.820 305.776 C 210.124 306.615,210.467 307.800,211.405 307.800 C 212.374 307.800,212.692 306.341,211.872 305.660 C 211.432 305.295,211.198 305.321,210.820 305.776 M235.220 305.776 C 234.524 306.615,234.867 307.800,235.805 307.800 C 236.774 307.800,237.092 306.341,236.272 305.660 C 235.832 305.295,235.598 305.321,235.220 305.776 M282.020 305.776 C 281.324 306.615,281.667 307.800,282.605 307.800 C 283.574 307.800,283.892 306.341,283.072 305.660 C 282.632 305.295,282.398 305.321,282.020 305.776 " stroke="none" fill="#fbfbfb" fill-rule="evenodd"></path><path id="path2" d="M184.000 106.157 C 184.000 117.603,183.926 119.143,183.367 119.357 C 183.019 119.491,176.989 119.600,169.967 119.600 L 157.200 119.600 157.200 132.606 L 157.200 145.613 168.067 145.506 C 176.328 145.426,178.974 145.280,179.100 144.900 C 179.213 144.561,178.800 144.400,177.820 144.400 C 169.095 144.400,166.624 131.391,174.634 127.626 C 183.000 123.694,191.167 134.271,185.046 141.110 L 183.713 142.600 183.978 154.600 C 184.270 167.768,184.179 167.279,187.060 171.100 L 188.041 172.400 196.720 172.391 C 206.454 172.381,205.962 172.514,208.574 169.200 L 209.992 167.400 209.996 159.932 L 210.000 152.464 207.689 150.132 C 203.757 146.165,200.769 139.317,200.014 132.540 C 199.778 130.428,199.506 128.572,199.410 128.416 C 199.313 128.260,198.974 126.797,198.656 125.166 C 195.074 106.778,196.639 99.332,204.570 97.026 C 205.774 96.676,206.869 96.212,207.003 95.995 C 207.137 95.778,207.867 95.600,208.624 95.600 C 209.886 95.600,210.000 95.501,210.000 94.400 L 210.000 93.200 197.000 93.200 L 184.000 93.200 184.000 106.157 M204.135 100.448 C 200.966 101.986,200.194 103.754,200.238 109.370 C 200.287 115.689,202.443 129.086,203.557 130.000 C 203.999 130.363,204.478 131.628,204.768 133.200 C 205.710 138.304,207.094 142.394,208.728 144.900 C 209.673 146.349,210.400 146.827,210.400 146.000 C 210.400 145.747,213.183 145.600,217.949 145.600 L 225.498 145.600 227.157 143.801 C 230.013 140.702,234.000 134.069,234.000 132.416 C 234.000 131.967,234.346 131.254,234.770 130.830 C 236.176 129.424,236.400 128.488,236.400 124.032 L 236.400 119.611 223.300 119.505 L 210.200 119.400 210.093 109.900 L 209.986 100.400 208.816 100.400 C 208.173 100.400,207.536 100.220,207.400 100.000 C 207.031 99.403,205.995 99.545,204.135 100.448 M235.354 140.100 C 234.987 140.815,234.173 142.152,233.544 143.072 C 231.986 145.350,232.070 145.600,234.400 145.600 L 236.400 145.600 236.400 142.200 C 236.400 138.414,236.310 138.235,235.354 140.100 M105.965 302.513 C 103.299 304.560,104.382 309.258,107.494 309.146 C 108.590 309.106,108.728 309.042,108.000 308.910 C 104.430 308.266,104.161 303.822,107.608 302.446 L 108.600 302.051 107.600 302.038 C 107.050 302.031,106.314 302.245,105.965 302.513 M199.675 302.816 C 197.487 304.854,198.851 309.262,201.631 309.140 C 202.828 309.088,202.863 309.059,201.909 308.914 C 200.554 308.709,199.200 307.051,199.200 305.600 C 199.200 304.149,200.554 302.491,201.909 302.286 C 202.974 302.124,202.971 302.118,201.775 302.060 C 201.030 302.023,200.208 302.319,199.675 302.816 M180.400 305.800 C 180.400 309.622,181.049 310.443,181.269 306.900 C 181.440 304.150,181.240 302.400,180.755 302.400 C 180.560 302.400,180.400 303.930,180.400 305.800 M172.065 304.122 C 171.800 304.441,171.782 304.843,172.017 305.213 C 172.221 305.536,172.391 306.565,172.394 307.500 C 172.399 308.951,172.521 309.200,173.229 309.200 C 173.982 309.200,174.000 309.143,173.429 308.571 C 172.584 307.727,172.607 305.348,173.464 304.868 C 174.062 304.534,174.046 304.453,173.306 304.057 C 172.688 303.726,172.380 303.742,172.065 304.122 M117.874 304.845 C 118.135 305.161,118.296 306.077,118.232 306.880 C 118.168 307.683,118.273 308.579,118.465 308.870 C 118.679 309.195,118.773 308.483,118.707 307.032 C 118.631 305.350,118.426 304.606,118.000 304.467 C 117.521 304.309,117.495 304.385,117.874 304.845 M134.480 304.880 C 133.859 305.501,133.859 308.099,134.480 308.720 C 135.293 309.533,135.769 309.250,135.007 308.408 C 134.444 307.785,134.391 307.493,134.761 307.046 C 135.124 306.609,135.124 306.441,134.759 306.320 C 134.395 306.198,134.394 305.958,134.757 305.281 C 135.284 304.295,135.195 304.165,134.480 304.880 M137.172 305.259 C 137.379 305.841,137.425 306.455,137.274 306.623 C 137.124 306.791,137.225 306.799,137.500 306.641 C 138.152 306.265,138.131 305.921,137.398 304.976 C 136.831 304.246,136.818 304.263,137.172 305.259 M151.606 304.725 C 151.594 305.775,152.917 309.242,153.209 308.926 C 153.375 308.747,153.632 308.150,153.781 307.600 C 153.990 306.828,153.955 306.737,153.626 307.200 C 153.143 307.881,152.424 307.178,152.400 306.000 C 152.384 305.213,151.615 303.978,151.606 304.725 M154.800 305.127 C 154.800 305.553,155.045 306.106,155.345 306.355 C 155.787 306.721,155.854 306.615,155.697 305.798 C 155.460 304.557,154.800 304.064,154.800 305.127 M164.928 306.800 C 164.928 308.230,165.001 308.815,165.089 308.100 C 165.178 307.385,165.178 306.215,165.089 305.500 C 165.001 304.785,164.928 305.370,164.928 306.800 M183.187 304.756 C 183.509 304.975,183.894 306.110,184.042 307.277 L 184.310 309.400 184.255 307.004 C 184.208 304.939,184.090 304.590,183.400 304.482 C 182.756 304.381,182.715 304.435,183.187 304.756 M209.823 305.289 C 208.674 306.930,209.597 309.200,211.413 309.200 C 213.322 309.200,214.342 305.324,212.609 304.659 C 212.197 304.501,212.223 304.724,212.716 305.583 C 213.576 307.082,212.900 308.800,211.451 308.800 C 209.918 308.800,209.319 305.636,210.700 304.832 C 211.085 304.608,211.185 304.419,210.923 304.412 C 210.660 304.405,210.165 304.800,209.823 305.289 M222.833 305.233 C 223.729 306.129,224.247 306.020,223.862 305.017 C 223.732 304.678,223.259 304.400,222.813 304.400 C 222.002 304.400,222.003 304.403,222.833 305.233 M225.547 304.759 C 225.848 304.950,226.250 305.352,226.441 305.653 C 226.696 306.056,226.789 305.963,226.794 305.300 C 226.798 304.630,226.570 304.402,225.900 304.406 C 225.237 304.411,225.144 304.504,225.547 304.759 M236.528 304.985 C 237.212 305.669,237.395 307.026,236.957 308.167 C 236.667 308.924,234.558 309.028,234.265 308.300 C 234.154 308.025,234.049 308.317,234.032 308.949 C 234.008 309.822,234.120 310.000,234.500 309.687 C 234.775 309.461,235.448 309.214,235.996 309.138 C 238.057 308.852,238.592 304.841,236.620 304.461 C 235.905 304.323,235.899 304.356,236.528 304.985 M246.700 304.665 C 246.975 304.776,247.200 305.428,247.200 306.113 C 247.200 306.988,247.326 307.234,247.622 306.938 C 248.236 306.324,247.646 304.394,246.857 304.432 C 246.442 304.452,246.384 304.537,246.700 304.665 M254.533 305.031 C 254.378 305.434,254.745 306.078,255.545 306.809 C 256.852 308.002,257.086 308.592,256.390 308.937 C 256.165 309.049,256.210 309.094,256.490 309.039 C 257.513 308.835,257.309 307.233,256.196 306.725 C 255.393 306.359,255.179 306.020,255.313 305.321 C 255.511 304.284,254.906 304.059,254.533 305.031 M263.836 305.051 C 263.540 305.822,264.158 306.669,265.275 307.024 C 265.867 307.212,266.030 307.533,265.894 308.243 C 265.745 309.021,265.815 309.120,266.255 308.755 C 267.106 308.048,266.901 307.293,265.700 306.708 C 264.970 306.353,264.611 305.875,264.632 305.286 C 264.669 304.251,264.196 304.111,263.836 305.051 M273.328 306.800 C 273.328 308.230,273.401 308.815,273.489 308.100 C 273.578 307.385,273.578 306.215,273.489 305.500 C 273.401 304.785,273.328 305.370,273.328 306.800 M281.023 305.289 C 279.874 306.930,280.797 309.200,282.613 309.200 C 284.522 309.200,285.542 305.324,283.809 304.659 C 283.397 304.501,283.423 304.724,283.916 305.583 C 284.776 307.082,284.100 308.800,282.651 308.800 C 281.118 308.800,280.519 305.636,281.900 304.832 C 282.285 304.608,282.385 304.419,282.123 304.412 C 281.860 304.405,281.365 304.800,281.023 305.289 M293.987 304.756 C 294.309 304.975,294.694 306.110,294.842 307.277 L 295.110 309.400 295.055 307.004 C 295.008 304.939,294.890 304.590,294.200 304.482 C 293.556 304.381,293.515 304.435,293.987 304.756 M156.400 308.200 C 156.400 308.750,156.580 309.200,156.800 309.200 C 157.020 309.200,157.200 308.750,157.200 308.200 C 157.200 307.650,157.020 307.200,156.800 307.200 C 156.580 307.200,156.400 307.650,156.400 308.200 M115.357 308.233 C 115.491 308.581,115.600 308.941,115.600 309.033 C 115.600 309.125,115.915 309.186,116.300 309.168 C 116.718 309.150,116.799 309.056,116.500 308.935 C 116.225 308.824,116.000 308.478,116.000 308.167 C 116.000 307.855,115.801 307.600,115.557 307.600 C 115.314 307.600,115.224 307.885,115.357 308.233 M244.400 308.213 C 244.400 308.549,244.678 308.932,245.017 309.062 C 245.921 309.409,245.969 309.098,245.133 308.300 C 244.513 307.708,244.400 307.694,244.400 308.213 " stroke="none" fill="#84cc2c" fill-rule="evenodd"></path><path id="path3" d="M183.467 92.667 C 183.320 92.813,183.200 98.843,183.200 106.067 L 183.200 119.200 170.000 119.200 L 156.800 119.200 156.800 132.806 L 156.800 146.412 168.300 146.306 L 179.800 146.200 179.800 145.205 C 179.800 144.330,179.582 144.179,178.000 143.952 C 168.477 142.589,167.230 130.450,176.320 127.598 C 183.918 125.215,189.759 135.146,184.256 141.091 L 183.061 142.381 183.156 153.491 C 183.261 165.825,183.375 166.525,185.925 170.497 L 187.400 172.793 196.740 172.797 L 206.080 172.800 207.358 171.500 C 210.443 168.362,210.400 168.527,210.400 159.789 L 210.400 151.901 208.646 150.357 C 204.771 146.946,201.494 139.850,200.815 133.400 C 200.653 131.860,200.065 128.440,199.509 125.800 C 195.720 107.804,197.026 100.043,204.218 97.827 C 205.528 97.423,206.884 96.847,207.231 96.546 C 207.579 96.246,208.434 96.000,209.131 96.000 C 210.368 96.000,210.400 95.955,210.400 94.200 L 210.400 92.400 197.067 92.400 C 189.733 92.400,183.613 92.520,183.467 92.667 M210.000 94.400 C 210.000 95.501,209.886 95.600,208.624 95.600 C 207.867 95.600,207.137 95.778,207.003 95.995 C 206.869 96.212,205.774 96.676,204.570 97.026 C 196.639 99.332,195.074 106.778,198.656 125.166 C 198.974 126.797,199.313 128.260,199.410 128.416 C 199.506 128.572,199.778 130.428,200.014 132.540 C 200.769 139.317,203.757 146.165,207.689 150.132 L 210.000 152.464 209.996 159.932 L 209.992 167.400 208.574 169.200 C 205.962 172.514,206.454 172.381,196.720 172.391 L 188.041 172.400 187.060 171.100 C 184.179 167.279,184.270 167.768,183.978 154.600 L 183.713 142.600 185.046 141.110 C 191.167 134.271,183.000 123.694,174.634 127.626 C 166.624 131.391,169.095 144.400,177.820 144.400 C 178.800 144.400,179.213 144.561,179.100 144.900 C 178.974 145.280,176.328 145.426,168.067 145.506 L 157.200 145.613 157.200 132.606 L 157.200 119.600 169.967 119.600 C 176.989 119.600,183.019 119.491,183.367 119.357 C 183.926 119.143,184.000 117.603,184.000 106.157 L 184.000 93.200 197.000 93.200 L 210.000 93.200 210.000 94.400 M203.800 99.935 C 198.892 102.928,198.325 106.578,200.610 120.456 C 202.058 129.253,202.327 130.288,203.231 130.524 C 203.714 130.650,204.000 131.074,204.000 131.663 C 204.000 132.530,204.653 135.773,205.529 139.252 C 206.356 142.540,209.771 148.064,210.258 146.900 C 210.414 146.525,212.341 146.400,217.950 146.400 L 225.433 146.400 227.061 144.700 C 229.624 142.022,231.771 138.868,233.390 135.400 C 235.074 131.793,235.115 131.716,236.154 130.244 C 236.785 129.350,236.915 128.383,236.954 124.288 L 237.000 119.400 223.800 119.200 L 210.600 119.000 210.493 109.500 C 210.382 99.663,210.409 99.809,208.735 99.973 C 208.370 100.009,207.954 99.850,207.812 99.619 C 207.401 98.954,205.112 99.134,203.800 99.935 M207.400 100.000 C 207.536 100.220,208.173 100.400,208.816 100.400 L 209.986 100.400 210.093 109.900 L 210.200 119.400 223.300 119.505 L 236.400 119.611 236.400 124.032 C 236.400 128.488,236.176 129.424,234.770 130.830 C 234.346 131.254,234.000 131.967,234.000 132.416 C 234.000 134.069,230.013 140.702,227.157 143.801 L 225.498 145.600 217.949 145.600 C 213.183 145.600,210.400 145.747,210.400 146.000 C 210.400 146.827,209.673 146.349,208.728 144.900 C 207.094 142.394,205.710 138.304,204.768 133.200 C 204.478 131.628,203.999 130.363,203.557 130.000 C 201.109 127.992,199.294 105.850,201.335 102.897 C 202.884 100.657,206.684 98.842,207.400 100.000 M235.403 138.800 C 234.791 140.010,233.594 142.025,232.745 143.278 C 230.685 146.315,230.718 146.400,233.953 146.400 C 237.205 146.400,237.202 146.406,237.166 141.400 C 237.133 136.619,236.775 136.091,235.403 138.800 M236.400 142.200 L 236.400 145.600 234.400 145.600 C 232.070 145.600,231.986 145.350,233.544 143.072 C 234.173 142.152,234.987 140.815,235.354 140.100 C 236.310 138.235,236.400 138.414,236.400 142.200 M105.074 302.635 C 102.522 305.187,104.158 309.600,107.657 309.600 C 110.185 309.600,110.426 308.286,107.936 308.078 C 104.862 307.821,104.929 303.645,108.014 303.200 C 110.039 302.908,109.870 301.834,107.774 301.681 C 106.451 301.583,105.948 301.762,105.074 302.635 M164.000 302.400 C 164.000 302.933,164.267 303.200,164.800 303.200 C 165.333 303.200,165.600 302.933,165.600 302.400 C 165.600 301.867,165.333 301.600,164.800 301.600 C 164.267 301.600,164.000 301.867,164.000 302.400 M180.000 305.600 C 180.000 309.333,180.053 309.600,180.800 309.600 C 181.493 309.600,181.600 309.333,181.600 307.600 C 181.600 306.500,181.780 305.600,182.000 305.600 C 182.220 305.600,182.535 305.596,182.700 305.590 C 182.865 305.585,183.090 306.440,183.200 307.490 C 183.532 310.661,185.019 310.270,184.949 307.030 C 184.892 304.389,184.285 303.580,182.600 303.902 C 181.706 304.073,181.600 303.961,181.600 302.847 C 181.600 301.867,181.429 301.600,180.800 301.600 C 180.053 301.600,180.000 301.867,180.000 305.600 M199.210 302.390 C 196.571 305.029,198.138 309.743,201.579 309.519 C 203.731 309.378,204.196 308.290,202.200 308.065 C 199.121 307.717,199.010 303.200,202.080 303.200 C 202.933 303.200,203.200 303.010,203.200 302.400 C 203.200 301.270,200.337 301.263,199.210 302.390 M272.800 302.429 C 272.800 303.002,273.015 303.217,273.495 303.125 C 274.538 302.924,274.654 301.600,273.629 301.600 C 273.057 301.600,272.800 301.857,272.800 302.429 M107.608 302.446 C 104.161 303.822,104.430 308.266,108.000 308.910 C 108.728 309.042,108.590 309.106,107.494 309.146 C 106.198 309.192,105.878 309.019,105.196 307.900 C 103.577 305.246,104.907 302.004,107.600 302.038 L 108.600 302.051 107.608 302.446 M201.909 302.286 C 200.554 302.491,199.200 304.149,199.200 305.600 C 199.200 307.051,200.554 308.709,201.909 308.914 C 202.863 309.059,202.828 309.088,201.631 309.140 C 199.579 309.230,198.800 308.298,198.800 305.754 C 198.800 303.214,199.807 301.964,201.775 302.060 C 202.971 302.118,202.974 302.124,201.909 302.286 M171.804 303.449 C 171.255 304.288,171.206 304.694,171.558 305.468 C 171.801 306.001,172.000 307.149,172.000 308.019 C 172.000 309.559,172.036 309.600,173.400 309.600 C 174.899 309.600,175.165 309.201,174.200 308.400 C 173.433 307.763,173.424 305.844,174.185 305.212 C 174.692 304.792,174.655 304.571,173.910 303.563 C 172.855 302.137,172.671 302.127,171.804 303.449 M181.261 303.500 C 181.503 305.262,181.160 309.200,180.763 309.200 C 180.563 309.200,180.400 307.670,180.400 305.800 C 180.400 302.572,180.936 301.141,181.261 303.500 M135.329 303.906 C 132.140 304.425,132.935 309.757,136.165 309.520 C 138.057 309.381,138.341 308.702,136.633 308.404 C 134.759 308.076,134.856 307.200,136.767 307.200 C 138.299 307.200,138.400 307.129,138.400 306.049 C 138.400 304.455,137.182 303.604,135.329 303.906 M173.464 304.868 C 172.607 305.348,172.584 307.727,173.429 308.571 C 174.000 309.143,173.982 309.200,173.229 309.200 C 172.521 309.200,172.399 308.951,172.394 307.500 C 172.391 306.565,172.221 305.536,172.017 305.213 C 171.429 304.283,172.288 303.512,173.306 304.057 C 174.046 304.453,174.062 304.534,173.464 304.868 M210.610 303.894 C 209.452 304.186,208.827 305.209,208.813 306.838 C 208.785 310.007,212.851 310.822,213.972 307.873 C 214.422 306.690,213.644 304.000,212.853 304.000 C 212.640 304.000,212.226 303.931,211.933 303.848 C 211.640 303.764,211.044 303.785,210.610 303.894 M221.100 303.924 L 219.600 304.048 219.600 306.824 C 219.600 310.389,221.057 311.149,221.278 307.700 C 221.366 306.332,221.568 305.800,222.000 305.800 C 222.432 305.800,222.634 306.332,222.722 307.700 C 222.822 309.254,222.982 309.600,223.600 309.600 C 224.218 309.600,224.378 309.254,224.478 307.700 C 224.566 306.332,224.768 305.800,225.200 305.800 C 225.632 305.800,225.834 306.332,225.922 307.700 C 226.122 310.818,227.602 310.464,227.594 307.300 C 227.585 303.870,226.784 303.454,221.100 303.924 M234.686 303.921 L 233.172 304.050 233.286 307.925 C 233.397 311.684,234.342 313.621,234.730 310.884 C 234.822 310.234,235.204 309.899,236.044 309.731 C 240.260 308.888,239.013 303.551,234.686 303.921 M254.905 304.040 C 253.208 304.667,253.500 306.871,255.343 307.353 C 256.273 307.596,255.895 308.227,254.679 308.461 C 253.303 308.726,253.809 309.401,255.474 309.522 C 257.949 309.702,258.846 307.495,256.753 306.375 C 255.765 305.846,255.791 305.200,256.800 305.200 C 257.240 305.200,257.600 304.951,257.600 304.647 C 257.600 303.974,256.034 303.622,254.905 304.040 M264.100 304.022 C 262.845 304.513,262.900 306.185,264.200 307.037 C 264.750 307.397,265.200 307.851,265.200 308.046 C 265.200 308.241,264.750 308.400,264.200 308.400 C 263.578 308.400,263.200 308.627,263.200 309.000 C 263.200 309.745,265.999 309.841,266.720 309.120 C 267.519 308.321,267.262 307.081,266.100 306.129 C 265.048 305.268,265.038 305.228,265.876 305.214 C 266.655 305.202,267.508 304.537,267.140 304.230 C 266.682 303.847,264.866 303.723,264.100 304.022 M281.810 303.894 C 280.652 304.186,280.027 305.209,280.013 306.838 C 279.985 310.007,284.051 310.822,285.172 307.873 C 285.622 306.690,284.844 304.000,284.053 304.000 C 283.840 304.000,283.426 303.931,283.133 303.848 C 282.840 303.764,282.244 303.785,281.810 303.894 M115.200 304.573 C 115.200 304.902,115.670 305.201,116.300 305.273 C 117.682 305.432,117.741 306.160,116.385 306.318 C 113.324 306.675,114.178 309.674,117.294 309.509 L 119.350 309.400 119.441 307.635 C 119.591 304.699,119.123 304.000,117.010 304.000 C 115.705 304.000,115.200 304.160,115.200 304.573 M125.200 306.800 C 125.200 309.333,125.276 309.600,126.000 309.600 C 126.681 309.600,126.800 309.333,126.800 307.809 C 126.800 306.342,126.980 305.900,127.797 305.365 C 129.106 304.508,128.726 304.000,126.776 304.000 L 125.200 304.000 125.200 306.800 M151.064 305.220 C 151.881 309.307,153.239 310.740,154.110 308.434 C 154.692 306.892,154.973 306.885,155.600 308.400 C 156.534 310.655,158.583 308.191,158.925 304.400 C 158.996 303.615,157.652 304.140,157.441 304.980 C 157.115 306.277,156.489 306.286,156.000 305.000 C 155.478 303.628,154.623 303.747,153.873 305.294 C 153.451 306.166,153.186 306.394,153.062 305.994 C 152.960 305.667,152.775 305.085,152.651 304.700 C 152.219 303.361,150.786 303.830,151.064 305.220 M164.000 306.800 C 164.000 309.333,164.076 309.600,164.800 309.600 C 165.524 309.600,165.600 309.333,165.600 306.800 C 165.600 304.267,165.524 304.000,164.800 304.000 C 164.076 304.000,164.000 304.267,164.000 306.800 M244.098 304.500 C 244.188 304.775,244.753 305.058,245.355 305.129 C 246.608 305.277,246.567 306.136,245.298 306.324 C 242.304 306.766,243.206 309.638,246.294 309.499 L 248.573 309.397 248.465 307.399 C 248.288 304.115,248.203 304.000,245.940 304.000 C 244.514 304.000,243.981 304.145,244.098 304.500 M272.800 306.800 C 272.800 309.333,272.876 309.600,273.600 309.600 C 274.324 309.600,274.400 309.333,274.400 306.800 C 274.400 304.267,274.324 304.000,273.600 304.000 C 272.876 304.000,272.800 304.267,272.800 306.800 M290.800 306.800 C 290.800 309.333,290.876 309.600,291.600 309.600 C 292.276 309.600,292.400 309.333,292.400 307.880 C 292.400 306.934,292.612 305.948,292.870 305.690 C 293.666 304.894,294.400 305.931,294.400 307.849 C 294.400 309.333,294.522 309.600,295.200 309.600 C 295.895 309.600,296.000 309.333,296.000 307.574 C 296.000 304.495,295.583 304.000,292.986 304.000 L 290.800 304.000 290.800 306.800 M118.707 307.032 C 118.773 308.483,118.679 309.195,118.465 308.870 C 118.273 308.579,118.168 307.683,118.232 306.880 C 118.296 306.077,118.135 305.161,117.874 304.845 C 117.495 304.385,117.521 304.309,118.000 304.467 C 118.426 304.606,118.631 305.350,118.707 307.032 M134.757 305.281 C 134.394 305.958,134.395 306.198,134.759 306.320 C 135.124 306.441,135.124 306.609,134.761 307.046 C 134.391 307.493,134.444 307.785,135.007 308.408 C 135.769 309.250,135.293 309.533,134.480 308.720 C 133.859 308.099,133.859 305.501,134.480 304.880 C 135.195 304.165,135.284 304.295,134.757 305.281 M138.000 306.053 C 138.000 306.218,137.775 306.482,137.500 306.641 C 137.225 306.799,137.124 306.791,137.274 306.623 C 137.425 306.455,137.379 305.841,137.172 305.259 C 136.818 304.263,136.831 304.246,137.398 304.976 C 137.729 305.404,138.000 305.888,138.000 306.053 M152.400 306.000 C 152.424 307.178,153.143 307.881,153.626 307.200 C 153.955 306.737,153.990 306.828,153.781 307.600 C 153.299 309.378,152.922 309.292,152.254 307.250 C 151.505 304.960,151.391 303.857,152.000 304.800 C 152.213 305.130,152.393 305.670,152.400 306.000 M155.697 305.798 C 155.854 306.615,155.787 306.721,155.345 306.355 C 154.753 305.863,154.575 304.214,155.152 304.570 C 155.346 304.690,155.591 305.242,155.697 305.798 M165.089 308.100 C 165.001 308.815,164.928 308.230,164.928 306.800 C 164.928 305.370,165.001 304.785,165.089 305.500 C 165.178 306.215,165.178 307.385,165.089 308.100 M184.255 307.004 L 184.310 309.400 184.042 307.277 C 183.894 306.110,183.509 304.975,183.187 304.756 C 182.715 304.435,182.756 304.381,183.400 304.482 C 184.090 304.590,184.208 304.939,184.255 307.004 M210.700 304.832 C 209.319 305.636,209.918 308.800,211.451 308.800 C 212.900 308.800,213.576 307.082,212.716 305.583 C 212.223 304.724,212.197 304.501,212.609 304.659 C 213.506 305.003,213.753 307.107,213.026 308.216 C 211.883 309.960,209.200 308.967,209.200 306.800 C 209.200 305.962,210.329 304.397,210.923 304.412 C 211.185 304.419,211.085 304.608,210.700 304.832 M223.862 305.017 C 224.247 306.020,223.729 306.129,222.833 305.233 C 222.003 304.403,222.002 304.400,222.813 304.400 C 223.259 304.400,223.732 304.678,223.862 305.017 M226.794 305.300 C 226.789 305.963,226.696 306.056,226.441 305.653 C 226.250 305.352,225.848 304.950,225.547 304.759 C 225.144 304.504,225.237 304.411,225.900 304.406 C 226.570 304.402,226.798 304.630,226.794 305.300 M237.746 305.637 C 238.249 307.070,237.307 308.956,235.996 309.138 C 235.448 309.214,234.775 309.461,234.500 309.687 C 234.120 310.000,234.008 309.822,234.032 308.949 C 234.049 308.317,234.154 308.025,234.265 308.300 C 234.558 309.028,236.667 308.924,236.957 308.167 C 237.395 307.026,237.212 305.669,236.528 304.985 C 235.899 304.356,235.905 304.323,236.620 304.461 C 237.040 304.542,237.546 305.071,237.746 305.637 M247.779 305.458 C 247.925 306.042,247.855 306.705,247.622 306.938 C 247.326 307.234,247.200 306.988,247.200 306.113 C 247.200 305.428,246.975 304.776,246.700 304.665 C 246.384 304.537,246.442 304.452,246.857 304.432 C 247.247 304.413,247.621 304.829,247.779 305.458 M255.313 305.321 C 255.179 306.020,255.393 306.359,256.196 306.725 C 257.309 307.233,257.513 308.835,256.490 309.039 C 256.210 309.094,256.165 309.049,256.390 308.937 C 257.086 308.592,256.852 308.002,255.545 306.809 C 254.745 306.078,254.378 305.434,254.533 305.031 C 254.906 304.059,255.511 304.284,255.313 305.321 M264.632 305.286 C 264.611 305.875,264.970 306.353,265.700 306.708 C 266.901 307.293,267.106 308.048,266.255 308.755 C 265.815 309.120,265.745 309.021,265.894 308.243 C 266.030 307.533,265.867 307.212,265.275 307.024 C 264.158 306.669,263.540 305.822,263.836 305.051 C 264.196 304.111,264.669 304.251,264.632 305.286 M273.489 308.100 C 273.401 308.815,273.328 308.230,273.328 306.800 C 273.328 305.370,273.401 304.785,273.489 305.500 C 273.578 306.215,273.578 307.385,273.489 308.100 M281.900 304.832 C 280.519 305.636,281.118 308.800,282.651 308.800 C 284.100 308.800,284.776 307.082,283.916 305.583 C 283.423 304.724,283.397 304.501,283.809 304.659 C 284.706 305.003,284.953 307.107,284.226 308.216 C 283.083 309.960,280.400 308.967,280.400 306.800 C 280.400 305.962,281.529 304.397,282.123 304.412 C 282.385 304.419,282.285 304.608,281.900 304.832 M295.055 307.004 L 295.110 309.400 294.842 307.277 C 294.694 306.110,294.309 304.975,293.987 304.756 C 293.515 304.435,293.556 304.381,294.200 304.482 C 294.890 304.590,295.008 304.939,295.055 307.004 M136.583 305.572 C 136.879 306.051,136.126 306.525,135.593 306.196 C 135.146 305.919,135.440 305.200,136.000 305.200 C 136.194 305.200,136.456 305.368,136.583 305.572 M212.237 306.205 C 212.528 307.365,211.812 308.456,210.971 308.133 C 210.268 307.864,210.212 305.743,210.900 305.465 C 211.812 305.097,211.983 305.192,212.237 306.205 M236.167 305.443 C 236.961 305.747,236.992 307.342,236.218 307.985 C 235.126 308.891,234.388 307.539,235.043 305.833 C 235.319 305.113,235.313 305.115,236.167 305.443 M283.437 306.205 C 283.728 307.365,283.012 308.456,282.171 308.133 C 281.468 307.864,281.412 305.743,282.100 305.465 C 283.012 305.097,283.183 305.192,283.437 306.205 M157.200 308.200 C 157.200 308.750,157.020 309.200,156.800 309.200 C 156.580 309.200,156.400 308.750,156.400 308.200 C 156.400 307.650,156.580 307.200,156.800 307.200 C 157.020 307.200,157.200 307.650,157.200 308.200 M116.000 308.167 C 116.000 308.478,116.225 308.824,116.500 308.935 C 116.799 309.056,116.718 309.150,116.300 309.168 C 115.915 309.186,115.600 309.125,115.600 309.033 C 115.600 308.941,115.491 308.581,115.357 308.233 C 115.224 307.885,115.314 307.600,115.557 307.600 C 115.801 307.600,116.000 307.855,116.000 308.167 M245.751 309.149 C 245.471 309.510,244.400 308.767,244.400 308.213 C 244.400 307.694,244.513 307.708,245.133 308.300 C 245.537 308.685,245.814 309.067,245.751 309.149 " stroke="none" fill="#a0d960" fill-rule="evenodd"></path><path id="path4" d="M188.800 66.027 C 120.545 70.510,76.167 138.361,99.407 202.703 C 114.564 244.664,157.170 272.691,200.146 268.970 C 207.034 268.373,211.216 267.848,213.800 267.256 C 214.680 267.055,216.390 266.668,217.600 266.397 C 218.810 266.127,220.509 265.566,221.375 265.153 C 222.241 264.739,223.186 264.400,223.475 264.400 C 223.788 264.400,224.000 263.930,224.000 263.237 C 224.000 262.123,223.947 262.089,222.700 262.416 C 216.467 264.052,195.985 264.799,188.400 263.667 C 181.629 262.656,177.480 261.767,172.200 260.195 C 137.476 249.857,112.995 222.841,104.797 185.812 C 101.003 168.671,103.586 146.275,111.393 128.633 C 124.003 100.137,153.128 77.024,181.800 72.759 C 183.120 72.562,186.090 72.125,188.400 71.787 C 193.372 71.059,207.471 70.956,212.724 71.609 C 217.842 72.245,221.655 72.787,222.900 73.056 C 223.900 73.272,224.000 73.189,224.000 72.144 C 224.000 70.881,223.568 70.621,219.600 69.495 C 213.149 67.665,207.056 66.629,200.200 66.199 C 198.220 66.075,195.970 65.912,195.200 65.836 C 194.430 65.760,191.550 65.846,188.800 66.027 M185.723 71.026 C 185.326 71.328,184.481 71.580,183.846 71.587 C 183.212 71.594,182.042 71.771,181.246 71.980 C 172.135 74.372,169.527 75.164,165.400 76.792 C 106.063 100.207,84.057 169.509,119.226 222.200 C 133.302 243.289,155.585 257.851,182.600 263.616 C 186.643 264.478,186.400 264.294,186.400 266.490 L 186.400 268.488 184.900 268.258 C 184.075 268.132,181.780 267.851,179.800 267.633 C 169.167 266.465,155.689 261.799,144.689 255.479 C 100.551 230.118,82.339 176.591,101.552 128.692 C 114.499 96.411,149.825 69.471,181.512 67.712 C 183.821 67.584,185.751 67.290,185.912 67.042 C 186.071 66.799,186.256 67.472,186.323 68.539 C 186.419 70.038,186.283 70.602,185.723 71.026 M129.933 134.300 C 129.375 134.905,128.810 135.706,128.679 136.079 C 128.548 136.453,127.741 136.947,126.884 137.177 C 123.757 138.019,123.435 138.932,122.629 149.237 C 121.277 166.534,121.086 187.483,122.236 192.245 C 124.587 201.977,140.905 218.519,165.400 235.999 C 181.588 247.551,187.232 252.150,189.626 255.735 C 191.707 258.850,191.996 258.822,193.119 255.400 C 198.852 237.931,199.002 219.056,193.494 208.185 C 190.457 202.191,182.072 195.219,169.000 187.817 C 167.900 187.194,165.183 185.551,162.961 184.167 C 154.086 178.635,145.600 178.094,145.600 183.059 C 145.600 187.496,150.602 192.981,164.279 203.543 C 173.015 210.290,175.350 212.810,174.059 214.101 C 173.451 214.709,169.586 212.423,163.556 207.892 C 153.743 200.516,150.922 197.907,144.090 189.886 C 142.497 188.017,142.475 187.329,143.641 176.215 C 145.408 159.375,143.439 145.550,138.984 143.520 C 138.127 143.129,138.000 142.809,137.998 141.036 C 137.991 134.752,133.207 130.756,129.933 134.300 M264.604 134.069 C 262.971 135.353,262.019 137.785,262.009 140.700 C 262.002 142.569,261.859 143.200,261.441 143.200 C 256.792 143.200,254.523 159.039,256.434 178.152 C 257.502 188.828,257.732 187.968,252.164 194.100 C 247.267 199.494,246.253 200.383,237.446 207.022 C 228.613 213.679,225.927 215.100,225.666 213.253 C 225.496 212.051,228.441 209.138,234.600 204.414 C 249.259 193.173,254.078 187.954,254.167 183.224 C 254.234 179.628,249.975 178.610,243.753 180.736 C 239.494 182.192,220.413 194.052,213.531 199.521 C 201.570 209.027,198.984 228.671,206.291 254.500 C 207.525 258.861,208.151 259.355,209.295 256.870 C 210.431 254.401,217.772 247.717,224.000 243.482 C 224.990 242.809,226.790 241.510,228.000 240.595 C 229.210 239.681,232.090 237.604,234.400 235.980 C 259.436 218.382,275.289 202.190,277.654 191.800 C 278.900 186.324,277.917 145.688,276.411 140.437 C 275.883 138.597,274.954 137.672,273.143 137.185 C 272.251 136.944,271.423 136.403,271.157 135.886 C 269.705 133.070,266.872 132.284,264.604 134.069 M134.734 134.166 C 136.380 135.017,137.600 137.973,137.600 141.111 C 137.600 142.708,137.790 143.083,139.344 144.552 C 143.382 148.367,144.949 161.034,143.186 175.600 C 142.986 177.250,142.703 180.812,142.557 183.515 L 142.291 188.431 143.634 190.115 C 149.206 197.105,152.677 200.339,162.668 207.849 C 171.970 214.842,174.645 216.015,174.551 213.063 C 174.491 211.172,172.593 209.263,165.167 203.623 C 162.435 201.549,160.110 199.750,160.000 199.626 C 159.890 199.502,158.630 198.426,157.200 197.235 C 144.114 186.339,142.223 177.771,153.494 180.453 C 157.443 181.393,158.413 181.882,167.529 187.535 C 169.361 188.671,170.940 189.600,171.040 189.600 C 171.361 189.600,182.105 196.844,185.100 199.080 C 193.430 205.298,196.927 213.906,196.931 228.200 C 196.934 236.146,196.365 240.728,194.352 249.000 C 192.470 256.729,191.704 258.424,190.894 256.646 C 189.414 253.399,182.531 247.669,165.200 235.259 C 142.752 219.184,130.617 207.471,124.112 195.600 C 122.323 192.335,122.199 190.996,122.222 175.200 C 122.249 157.475,123.230 141.873,124.479 139.326 C 124.920 138.427,126.271 137.727,127.966 137.519 C 128.648 137.435,129.061 137.021,129.366 136.116 C 130.159 133.768,132.394 132.956,134.734 134.166 M269.454 134.500 C 269.890 134.995,270.458 135.895,270.715 136.500 C 271.082 137.363,271.450 137.600,272.422 137.600 C 276.417 137.600,277.688 146.573,277.748 175.200 C 277.786 192.789,277.764 192.901,272.833 200.400 C 266.729 209.685,252.620 222.527,234.601 235.200 C 232.881 236.410,230.017 238.485,228.237 239.812 C 226.456 241.139,224.100 242.838,223.000 243.587 C 218.607 246.582,211.981 252.345,209.881 255.000 C 209.011 256.100,208.113 257.000,207.886 257.000 C 207.168 257.000,205.296 249.670,203.544 240.000 C 202.850 236.175,202.800 220.963,203.472 218.400 C 203.732 217.410,204.164 215.700,204.434 214.600 C 205.873 208.723,209.412 203.403,214.746 199.096 C 217.038 197.246,232.477 187.200,233.029 187.200 C 233.109 187.200,234.542 186.308,236.213 185.217 C 240.015 182.735,243.155 181.188,245.322 180.729 C 252.972 179.110,255.379 181.067,252.749 186.766 C 251.360 189.776,244.174 196.505,234.400 203.950 C 226.593 209.896,224.026 212.786,225.246 214.256 C 226.781 216.105,244.781 203.297,251.796 195.363 C 253.335 193.623,254.689 192.110,254.807 192.000 C 254.924 191.890,255.626 191.022,256.366 190.072 L 257.712 188.343 257.452 184.272 C 257.308 182.032,257.011 178.580,256.790 176.600 C 255.022 160.742,256.650 147.687,260.814 144.340 C 262.231 143.202,262.322 142.990,262.476 140.468 C 262.814 134.927,266.814 131.506,269.454 134.500 M87.067 277.067 C 86.920 277.213,86.800 280.974,86.800 285.424 C 86.800 294.235,86.738 294.008,89.133 293.994 C 90.901 293.984,91.154 293.559,91.281 290.388 L 91.400 287.400 94.100 287.282 L 96.800 287.163 96.800 290.168 C 96.800 293.470,97.175 294.006,99.474 293.994 C 101.628 293.982,101.626 293.992,101.509 285.171 L 101.400 277.000 99.439 276.876 C 97.014 276.722,96.814 276.998,96.806 280.518 L 96.800 283.237 94.100 283.118 L 91.400 283.000 91.283 279.900 L 91.166 276.800 89.250 276.800 C 88.196 276.800,87.213 276.920,87.067 277.067 M106.011 284.770 C 102.868 293.423,102.806 294.000,105.014 294.000 C 106.893 294.000,107.849 293.456,108.162 292.211 C 108.587 290.515,114.135 290.663,114.735 292.386 C 115.374 294.218,120.406 294.705,119.824 292.878 C 119.705 292.505,118.364 288.780,116.844 284.600 L 114.080 277.000 111.499 276.883 L 108.918 276.766 106.011 284.770 M121.467 277.067 C 121.320 277.213,121.200 280.974,121.200 285.424 C 121.200 294.172,121.156 294.000,123.400 294.000 C 125.509 294.000,125.600 293.809,125.600 289.357 C 125.600 284.237,125.641 284.238,128.973 289.373 C 131.815 293.754,132.094 294.004,134.133 293.994 C 136.448 293.983,136.427 294.068,136.309 285.171 L 136.200 277.000 134.100 276.879 L 132.000 276.758 132.000 280.912 C 132.000 286.337,131.964 286.340,128.529 281.199 L 125.590 276.800 123.661 276.800 C 122.601 276.800,121.613 276.920,121.467 277.067 M139.067 277.067 C 138.920 277.213,138.800 280.990,138.800 285.459 L 138.800 293.585 139.850 293.848 C 149.693 296.319,157.683 287.886,152.671 280.316 C 150.871 277.598,140.914 275.219,139.067 277.067 M156.000 285.192 C 156.000 294.994,155.436 294.108,161.558 293.917 C 165.682 293.789,166.341 293.415,165.856 291.482 C 165.617 290.530,165.396 290.429,163.297 290.320 L 161.000 290.200 160.903 284.400 C 160.771 276.515,160.872 276.800,158.192 276.800 L 156.000 276.800 156.000 285.192 M167.200 285.157 C 167.200 294.908,166.630 294.000,172.753 294.000 C 177.375 294.000,178.000 293.762,178.000 292.000 C 178.000 290.410,177.286 290.000,174.520 290.000 L 172.000 290.000 172.000 288.600 L 172.000 287.200 174.392 287.200 C 176.611 287.200,176.803 287.127,177.036 286.200 C 177.617 283.884,177.014 283.200,174.392 283.200 C 172.001 283.200,172.000 283.200,172.000 282.000 L 172.000 280.800 174.586 280.800 C 177.518 280.800,178.270 280.138,177.795 277.977 L 177.536 276.800 172.368 276.800 L 167.200 276.800 167.200 285.157 M184.000 277.325 C 184.000 278.653,188.058 293.389,188.501 293.671 C 189.135 294.073,192.447 294.085,193.073 293.687 C 193.479 293.429,194.392 290.478,195.375 286.242 C 195.770 284.544,196.229 285.337,197.205 289.400 C 198.246 293.734,198.441 294.002,200.549 293.995 C 203.818 293.984,203.626 294.275,205.764 286.078 C 208.295 276.370,208.310 277.027,205.557 276.882 L 203.314 276.763 202.877 278.482 C 202.637 279.427,202.241 281.190,201.997 282.400 C 201.754 283.610,201.465 285.031,201.355 285.558 C 201.053 287.012,200.566 286.122,199.841 282.792 C 199.481 281.138,199.001 279.113,198.774 278.292 L 198.362 276.800 196.012 276.800 C 193.310 276.800,193.617 276.324,191.953 283.102 C 190.887 287.447,190.753 287.404,189.825 282.421 C 188.761 276.714,188.816 276.800,186.210 276.800 C 184.652 276.800,184.000 276.955,184.000 277.325 M209.452 277.700 C 208.977 279.472,209.172 293.012,209.680 293.520 C 210.188 294.028,212.306 294.164,213.367 293.757 C 214.017 293.508,214.364 279.013,213.757 277.433 C 213.337 276.338,209.758 276.560,209.452 277.700 M215.532 277.790 C 214.717 279.578,215.594 280.731,217.881 280.877 L 219.800 281.000 220.000 287.400 L 220.200 293.800 221.348 293.931 C 224.375 294.277,224.367 294.294,224.490 287.295 L 224.600 281.000 226.600 280.800 L 228.600 280.600 228.600 278.800 L 228.600 277.000 222.296 276.890 L 215.992 276.780 215.532 277.790 M230.252 277.700 C 229.777 279.472,229.972 293.012,230.480 293.520 C 230.988 294.028,233.106 294.164,234.167 293.757 C 234.670 293.564,234.800 292.867,234.800 290.357 L 234.800 287.200 237.600 287.200 L 240.400 287.200 240.400 290.357 C 240.400 293.815,240.529 294.000,242.953 294.000 C 245.120 294.000,245.201 293.708,245.195 285.820 C 245.188 276.522,245.247 276.730,242.648 276.881 L 240.600 277.000 240.483 280.100 L 240.366 283.200 237.583 283.200 L 234.800 283.200 234.800 280.633 C 234.800 277.015,234.665 276.800,232.404 276.800 C 230.761 276.800,230.460 276.926,230.252 277.700 M255.963 277.731 C 249.524 281.131,250.680 291.734,257.695 293.626 C 262.132 294.823,268.522 291.639,267.931 288.525 C 267.692 287.267,264.270 287.302,262.754 288.577 C 259.937 290.947,256.600 289.248,256.600 285.444 C 256.600 281.420,259.861 279.666,262.778 282.120 C 264.475 283.548,268.000 283.723,268.000 282.380 C 268.000 277.997,260.756 275.200,255.963 277.731 M274.874 277.700 C 274.621 278.195,273.676 280.670,272.774 283.200 C 271.873 285.730,270.666 289.029,270.093 290.530 C 268.915 293.613,269.078 293.988,271.600 293.988 C 273.336 293.988,273.837 293.680,274.365 292.292 C 274.763 291.245,274.897 291.200,277.600 291.200 C 280.303 291.200,280.437 291.245,280.835 292.292 C 281.468 293.956,283.946 294.655,285.571 293.626 C 286.113 293.283,283.441 284.910,280.744 278.500 L 280.028 276.800 277.682 276.800 C 275.651 276.800,275.273 276.921,274.874 277.700 M287.867 277.067 C 287.720 277.213,287.600 280.974,287.600 285.424 C 287.600 294.172,287.556 294.000,289.800 294.000 C 291.760 294.000,292.000 293.670,292.000 290.981 C 292.000 287.655,292.460 287.500,294.030 290.296 C 295.928 293.676,296.291 294.001,298.162 293.994 C 301.009 293.983,301.120 293.636,299.294 290.468 L 297.672 287.654 299.236 286.058 C 301.921 283.319,301.273 279.281,297.885 277.641 C 296.152 276.802,288.566 276.367,287.867 277.067 M303.078 277.055 C 302.925 277.208,302.800 280.974,302.800 285.424 C 302.800 294.831,302.304 294.002,307.933 293.995 C 313.244 293.987,313.600 293.862,313.600 291.996 C 313.600 290.179,313.254 290.000,309.742 290.000 L 307.149 290.000 307.275 288.700 C 307.400 287.403,307.407 287.399,310.000 287.200 L 312.600 287.000 312.722 285.313 C 312.859 283.426,312.673 283.309,309.200 283.105 C 305.903 282.912,306.563 281.039,309.985 280.879 C 313.101 280.732,313.679 280.333,313.520 278.434 L 313.400 277.000 308.378 276.889 C 305.616 276.827,303.231 276.902,303.078 277.055 M264.047 278.224 C 265.316 278.880,267.200 281.036,267.200 281.831 C 267.200 282.808,264.517 282.530,263.036 281.400 C 260.341 279.345,256.845 280.463,255.985 283.655 C 254.666 288.556,259.187 292.379,262.754 289.377 C 263.744 288.544,264.311 288.378,265.815 288.477 L 267.661 288.600 266.718 289.994 C 263.818 294.285,256.593 294.293,253.757 290.007 C 250.927 285.730,253.066 278.749,257.507 277.771 C 258.108 277.638,258.780 277.463,259.000 277.381 C 259.708 277.118,262.956 277.660,264.047 278.224 M90.800 280.800 L 91.000 283.800 94.200 283.800 L 97.400 283.800 97.600 280.800 L 97.800 277.800 99.300 277.676 L 100.800 277.552 100.800 285.376 L 100.800 293.200 99.216 293.200 L 97.632 293.200 97.516 289.900 L 97.400 286.600 94.200 286.600 L 91.000 286.600 90.884 289.900 L 90.768 293.200 88.984 293.200 L 87.200 293.200 87.200 285.667 C 87.200 277.388,87.169 277.511,89.186 277.681 L 90.600 277.800 90.800 280.800 M113.792 278.300 C 113.945 278.685,115.119 281.880,116.400 285.400 C 117.681 288.920,118.855 292.115,119.008 292.500 C 119.248 293.105,119.039 293.200,117.474 293.200 C 115.758 293.200,115.638 293.126,115.200 291.800 L 114.738 290.400 111.449 290.400 L 108.161 290.400 107.654 291.800 C 107.180 293.113,107.038 293.200,105.380 293.200 L 103.612 293.200 104.348 291.300 C 104.753 290.255,106.038 286.745,107.203 283.500 L 109.323 277.600 111.419 277.600 C 113.042 277.600,113.577 277.758,113.792 278.300 M128.400 282.287 C 132.202 287.972,132.344 287.973,132.487 282.300 L 132.600 277.800 134.200 277.800 L 135.800 277.800 135.909 285.500 L 136.017 293.200 134.109 293.184 L 132.200 293.167 129.258 288.584 C 125.472 282.686,125.200 282.687,125.200 288.600 L 125.200 293.200 123.400 293.200 L 121.600 293.200 121.600 285.667 C 121.600 277.295,121.540 277.516,123.785 277.681 C 125.362 277.797,125.471 277.906,128.400 282.287 M148.893 278.181 C 153.523 280.116,154.993 286.533,151.701 290.444 C 149.936 292.543,147.982 293.181,143.300 293.191 L 139.200 293.200 139.200 285.667 C 139.200 281.523,139.320 278.013,139.467 277.867 C 139.996 277.337,147.470 277.587,148.893 278.181 M160.000 284.200 L 160.200 290.600 162.700 290.719 C 165.175 290.837,165.200 290.850,165.200 292.019 L 165.200 293.200 161.000 293.200 L 156.800 293.200 156.800 285.376 L 156.800 277.552 158.300 277.676 L 159.800 277.800 160.000 284.200 M177.200 278.800 L 177.200 280.000 174.200 280.000 L 171.200 280.000 171.200 282.000 L 171.200 284.000 173.800 284.000 L 176.400 284.000 176.400 285.181 C 176.400 286.350,176.375 286.363,173.900 286.481 L 171.400 286.600 171.274 288.360 C 171.118 290.541,171.463 290.786,174.700 290.794 L 177.200 290.800 177.200 292.000 L 177.200 293.200 172.600 293.200 L 168.000 293.200 168.000 285.400 L 168.000 277.600 172.600 277.600 L 177.200 277.600 177.200 278.800 M188.863 281.000 C 189.227 282.760,189.735 285.235,189.991 286.500 C 190.716 290.079,191.297 289.176,193.013 281.800 C 193.371 280.260,193.752 278.685,193.859 278.300 C 194.010 277.756,194.487 277.600,195.993 277.600 L 197.933 277.600 198.975 282.100 C 200.865 290.267,201.127 290.422,202.363 284.100 C 202.868 281.515,203.373 278.995,203.484 278.500 C 203.687 277.598,206.455 277.118,206.938 277.900 C 207.040 278.065,206.359 281.080,205.424 284.600 C 204.489 288.120,203.603 291.495,203.454 292.100 C 203.115 293.484,199.032 293.824,198.655 292.500 C 198.545 292.115,198.060 290.090,197.576 288.000 C 196.689 284.167,195.848 282.462,195.420 283.629 C 195.304 283.943,194.711 286.180,194.100 288.600 L 192.991 293.000 190.791 293.117 L 188.591 293.234 186.726 285.730 C 184.666 277.441,184.666 277.505,186.737 277.678 L 188.200 277.800 188.863 281.000 M213.200 285.400 L 213.200 293.200 211.600 293.200 L 210.000 293.200 210.000 285.400 L 210.000 277.600 211.600 277.600 L 213.200 277.600 213.200 285.400 M227.927 278.700 C 227.811 279.707,227.640 279.810,225.900 279.922 L 224.000 280.044 224.000 286.622 L 224.000 293.200 222.210 293.200 L 220.420 293.200 220.310 286.700 L 220.200 280.200 218.279 280.077 C 216.321 279.952,215.686 279.394,216.145 278.200 C 216.335 277.705,217.393 277.600,222.214 277.600 L 228.053 277.600 227.927 278.700 M234.005 279.900 C 234.015 283.985,234.028 284.000,237.600 284.000 C 241.172 284.000,241.185 283.985,241.195 279.900 L 241.200 277.600 242.800 277.600 L 244.400 277.600 244.400 285.400 L 244.400 293.200 242.800 293.200 L 241.200 293.200 241.195 290.700 C 241.185 286.391,241.192 286.400,237.600 286.400 C 234.008 286.400,234.015 286.391,234.005 290.700 L 234.000 293.200 232.400 293.200 L 230.800 293.200 230.800 285.400 L 230.800 277.600 232.400 277.600 L 234.000 277.600 234.005 279.900 M282.469 285.000 C 285.674 293.640,285.613 293.200,283.605 293.200 C 282.161 293.200,281.956 293.068,281.426 291.800 L 280.841 290.400 277.646 290.400 L 274.452 290.400 273.946 291.800 C 273.508 293.009,270.000 294.129,270.000 293.059 C 270.000 292.908,274.437 280.545,275.161 278.679 C 275.571 277.623,275.719 277.565,277.697 277.679 L 279.798 277.800 282.469 285.000 M298.041 278.515 C 300.686 280.295,300.878 284.508,298.378 285.935 C 296.658 286.916,296.662 287.360,298.409 290.215 C 300.356 293.396,300.368 293.200,298.228 293.200 L 296.456 293.200 294.800 290.200 C 293.627 288.075,292.919 287.200,292.372 287.200 C 291.678 287.200,291.600 287.503,291.600 290.200 L 291.600 293.200 289.800 293.200 L 288.000 293.200 288.000 285.667 C 288.000 281.523,288.120 278.013,288.267 277.867 C 289.036 277.097,296.688 277.604,298.041 278.515 M312.600 278.800 C 312.600 279.752,312.467 279.810,309.800 280.000 L 307.000 280.200 307.000 282.000 L 307.000 283.800 309.400 284.000 C 311.640 284.187,311.800 284.267,311.800 285.200 C 311.800 286.133,311.640 286.213,309.400 286.400 L 307.000 286.600 306.874 288.360 C 306.718 290.541,307.063 290.786,310.300 290.794 L 312.800 290.800 312.800 292.000 L 312.800 293.200 308.000 293.200 L 303.200 293.200 303.200 285.667 C 303.200 276.763,302.710 277.549,308.179 277.688 C 312.598 277.800,312.600 277.800,312.600 278.800 M143.255 280.534 C 142.925 280.931,142.809 282.550,142.886 285.657 L 143.000 290.200 144.800 290.309 C 151.494 290.713,152.027 281.241,145.369 280.206 C 144.186 280.023,143.605 280.113,143.255 280.534 M291.762 280.554 C 291.645 280.859,291.606 281.894,291.675 282.854 L 291.800 284.600 293.541 284.725 C 296.478 284.936,298.089 282.148,295.911 280.623 C 294.793 279.840,292.054 279.795,291.762 280.554 M147.027 281.386 C 151.211 283.134,149.791 289.810,145.296 289.522 L 143.400 289.400 143.284 285.630 C 143.124 280.422,143.554 279.934,147.027 281.386 M295.532 281.150 C 295.834 281.341,296.007 281.986,295.932 282.643 C 295.749 284.248,292.292 284.452,292.068 282.871 C 291.801 280.984,293.746 280.018,295.532 281.150 M110.924 282.500 C 110.324 283.427,109.305 286.996,109.496 287.500 C 109.725 288.105,113.040 288.182,113.406 287.591 C 113.718 287.086,112.067 282.000,111.591 282.000 C 111.402 282.000,111.102 282.225,110.924 282.500 M277.077 282.300 C 276.499 283.319,275.563 286.926,275.750 287.415 C 276.151 288.458,279.600 288.207,279.600 287.135 C 279.600 284.691,277.741 281.130,277.077 282.300 M112.341 285.146 C 112.588 285.886,112.692 286.651,112.572 286.846 C 112.373 287.167,110.000 287.375,110.000 287.071 C 110.000 287.000,110.292 286.086,110.648 285.040 C 111.342 283.004,111.631 283.023,112.341 285.146 M278.911 286.900 C 278.824 287.065,278.223 287.200,277.576 287.200 C 276.205 287.200,276.100 286.677,277.034 284.487 L 277.668 283.000 278.368 284.800 C 278.753 285.790,278.997 286.735,278.911 286.900 M85.502 295.300 C 85.401 295.575,85.396 296.025,85.492 296.300 C 85.631 296.698,108.893 296.800,200.000 296.800 C 291.107 296.800,314.369 296.698,314.508 296.300 C 314.604 296.025,314.599 295.575,314.498 295.300 C 314.352 294.902,291.087 294.800,200.000 294.800 C 108.913 294.800,85.648 294.902,85.502 295.300 M313.367 295.443 C 313.715 295.576,314.000 295.846,314.000 296.043 C 314.000 296.252,266.628 296.400,200.000 296.400 C 137.300 296.400,86.000 296.250,86.000 296.067 C 86.000 295.883,86.120 295.613,86.267 295.467 C 86.600 295.134,312.499 295.110,313.367 295.443 M171.693 307.200 C 171.693 307.970,171.775 308.285,171.876 307.900 C 171.976 307.515,171.976 306.885,171.876 306.500 C 171.775 306.115,171.693 306.430,171.693 307.200 " stroke="none" fill="#a8d0f3" fill-rule="evenodd"></path></g></svg>